<svg width="500" height="500" viewBox="0 0 40 30" role="image"><title>Fan Chart</title><path fill="none" stroke="#333331" stroke-width="2.407" stroke-linejoin="round" stroke-miterlimit="10" d="M17.664 21.049L2.938 25.073a18.48 18.48 0 0 1-.602-4.697c0-9.997 7.909-18.103 17.664-18.103 9.757 0 17.666 8.105 17.666 18.103 0 1.62-.207 3.19-.598 4.686l-14.731-3.998"></path><path fill="none" stroke="#333331" stroke-width="1.267" stroke-miterlimit="10" d="M30.104 17.988l7.579-1.507M24.555 10.765l3.419-6.936M9.898 17.988l-7.579-1.507M15.449 10.765l-3.421-6.936"></path><path fill="none" stroke="#333331" stroke-width="1.258" stroke-linecap="round" stroke-miterlimit="10" d="M10.174 22.584A10.19 10.19 0 0 1 9.842 20c0-5.611 4.549-10.158 10.158-10.158 5.612 0 10.161 4.547 10.161 10.158 0 .899-.116 1.77-.335 2.598"></path><circle fill="none" stroke="#333331" stroke-width="2.407" stroke-linecap="round" stroke-miterlimit="10" cx="20" cy="20" r="2.533"></circle><path fill="none" d="M1 1h38v28H1z"></path><path fill="none" stroke="#333331" stroke-width="1.267" stroke-miterlimit="10" d="M12.741 22.261a7.605 7.605 0 0 0 14.512.029"></path><path fill="#333331" d="M22.073 17.957L33.875 7.856l1.445 1.885-12.813 8.781zM17.495 18.522L4.682 9.741l1.445-1.885 11.801 10.101zM19.644 17.112l-.831-15.511h2.375l-.831 15.511z"></path></svg>