<svg xmlns="http://www.w3.org/2000/svg" viewBox="0 0 16 16">
  <path d="M8.16.12a5.51 5.51 0 0 0-5.31 5.69V16h10.62V5.81A5.51 5.51 0 0 0 8.16.12Zm.89 13.35a1.42 1.42 0 0 1-.28.44 1.3 1.3 0 0 1-.42.29 1.26 1.26 0 0 1-1 0 1.27 1.27 0 0 1-.41-.29 1.39 1.39 0 0 1-.27-.44 1.54 1.54 0 0 1 0-1.09 1.44 1.44 0 0 1 .27-.45 1.3 1.3 0 0 1 .41-.3 1.22 1.22 0 0 1 1 0 1.34 1.34 0 0 1 .42.3 1.47 1.47 0 0 1 .28.45 1.49 1.49 0 0 1 0 1.09Zm2.24-7.36a4 4 0 0 1-.59 1 6.36 6.36 0 0 1-.78.79c-.28.24-.55.48-.81.73a5.41 5.41 0 0 0-.68.8 2.37 2.37 0 0 0-.39 1h-.62a3.57 3.57 0 0 1 .12-1 6.49 6.49 0 0 1 .3-.86c.16-.27.26-.57.4-.82s.27-.56.39-.87a6.91 6.91 0 0 0 .3-1 4.91 4.91 0 0 0 .12-1.14A4.12 4.12 0 0 0 9 3.89a2.08 2.08 0 0 0-.28-.69 1.3 1.3 0 0 0-.48-.44 1.45 1.45 0 0 0-.69-.16 1.68 1.68 0 0 0-.72.15 1.91 1.91 0 0 0-1 1 1.62 1.62 0 0 0-.14.65.94.94 0 0 0 .06.38.56.56 0 0 0 .15.2.44.44 0 0 0 .17.09h.12a.6.6 0 0 0 .3-.07l.2-.13.17-.13a.32.32 0 0 1 .2-.06.52.52 0 0 1 .18 0 .51.51 0 0 1 .18.12.64.64 0 0 1 .14.23 1 1 0 0 1 .05.35.89.89 0 0 1-.12.46 1.22 1.22 0 0 1-.31.35 1.39 1.39 0 0 1-.42.22 1.53 1.53 0 0 1-.46.07A1.36 1.36 0 0 1 5.21 6a2.08 2.08 0 0 1-.4-1.37 2.64 2.64 0 0 1 .28-1.25 2.61 2.61 0 0 1 .75-.88A3.17 3.17 0 0 1 6.9 2a4.61 4.61 0 0 1 1.24-.17 4.14 4.14 0 0 1 1.36.21 3.23 3.23 0 0 1 1.07.61 2.77 2.77 0 0 1 .7.94 2.88 2.88 0 0 1 .25 1.22 3.25 3.25 0 0 1-.23 1.31Z"/>
</svg>